<svg width="22" height="16" viewBox="0 0 22 16" fill="none" xmlns="http://www.w3.org/2000/svg">
<path d="M15.657 4.63321H3.11764L6.3709 1.28735C6.65648 0.993378 6.64603 0.527275 6.34687 0.246647C6.04769 -0.0336299 5.57333 -0.0237041 5.28774 0.270603L0.849997 4.83483C0.712771 4.97549 0.638244 5.16507 0.642773 5.3598C0.647301 5.55453 0.730541 5.74 0.874036 5.87552L5.79208 10.4921C5.93731 10.6279 6.12365 10.6957 6.30928 10.6957C6.5064 10.6957 6.70388 10.6197 6.8505 10.4681C7.13609 10.1741 7.12564 9.70802 6.82647 9.42739L3.28826 6.10475H15.6574C17.9975 6.10475 19.9015 7.97537 19.9015 10.2751C19.9012 12.5745 17.9975 14.4454 15.6574 14.4454H10.165C9.75121 14.4454 9.41616 14.775 9.41616 15.1812C9.41616 15.5874 9.75121 15.917 10.165 15.917H15.6574C18.8232 15.917 21.3991 13.3859 21.3991 10.2752C21.3991 7.16445 18.8232 4.63335 15.6574 4.63335L15.657 4.63321Z" fill="#4094F7"/>
</svg>
