<svg width="32" height="32" viewBox="0 0 32 32" fill="none" xmlns="http://www.w3.org/2000/svg">
<path d="M30.6063 16C30.6063 24.5748 23.8664 31.5 15.5839 31.5C7.30145 31.5 0.561523 24.5748 0.561523 16C0.561523 7.42519 7.30145 0.5 15.5839 0.5C23.8664 0.5 30.6063 7.42519 30.6063 16Z" fill="#FEFEFE" stroke="#4094F7"/>
<path d="M15.5844 8C11.3051 8 7.82324 11.5886 7.82324 16C7.82324 20.4114 11.3048 24 15.5844 24C19.8641 24 23.3456 20.4114 23.3456 16C23.3456 11.5886 19.8641 8 15.5844 8ZM15.5844 23.4217C11.6143 23.4217 8.38429 20.0923 8.38429 16C8.38429 11.9077 11.6143 8.57831 15.5844 8.57831C19.5545 8.57831 22.7846 11.9077 22.7846 16C22.7846 20.0923 19.5546 23.4217 15.5844 23.4217Z" fill="#4094F7"/>
<path d="M20.1811 12.3606C20.099 12.3525 20.0176 12.3841 19.9595 12.4443L12.1368 20.5076C12.0785 20.5677 12.0488 20.6513 12.0557 20.7361C12.0626 20.8209 12.1052 20.8982 12.1726 20.9476C13.1725 21.682 14.3533 22.0701 15.5873 22.0702H15.5874C17.16 22.0702 18.6388 21.4389 19.7509 20.2924C21.7927 18.1876 22.0601 14.9024 20.3862 12.4811C20.3383 12.4117 20.2634 12.3677 20.1811 12.3606L20.1811 12.3606Z" fill="#4094F7"/>
<path d="M19.1125 11.2639C19.1056 11.179 19.0629 11.1017 18.9957 11.0523C17.9958 10.3177 16.8149 9.92969 15.581 9.92969C14.0081 9.92969 12.5295 10.561 11.4172 11.7075C9.37522 13.8123 9.10796 17.0975 10.7818 19.5192C10.8297 19.5884 10.9047 19.6324 10.987 19.6395C10.9948 19.6403 11.0025 19.6405 11.0103 19.6405C11.0844 19.6405 11.1558 19.6102 11.2088 19.5559L19.0314 11.4926C19.0896 11.4323 19.1192 11.3487 19.1124 11.2641L19.1125 11.2639Z" fill="#4094F7"/>
</svg>
