<svg width="32" height="32" viewBox="0 0 32 32" fill="none" xmlns="http://www.w3.org/2000/svg">
<path d="M31.2323 16C31.2323 24.5748 24.4923 31.5 16.2099 31.5C7.92743 31.5 1.1875 24.5748 1.1875 16C1.1875 7.42519 7.92743 0.5 16.2099 0.5C24.4923 0.5 31.2323 7.42519 31.2323 16Z" fill="#FEFEFE" stroke="#4094F7"/>
<path d="M10.7328 21.6464C10.1011 21.6464 9.53517 21.3507 9.15802 20.8867C8.72241 21.3155 8.4502 21.9192 8.4502 22.5875V23.9992H13.0155V22.5875C13.0155 21.9192 12.7432 21.3155 12.3076 20.8867C11.9305 21.3507 11.3646 21.6464 10.7328 21.6464Z" fill="#4094F7"/>
<path d="M23.2637 20.8867C22.8866 21.3507 22.3207 21.6464 21.6889 21.6464C21.0571 21.6464 20.4912 21.3507 20.1141 20.8867C19.6785 21.3155 19.4062 21.9192 19.4062 22.5875V23.9992H23.9715V22.5875C23.9715 21.9192 23.6993 21.3155 23.2637 20.8867Z" fill="#4094F7"/>
<path d="M16.2085 11.7654C16.4606 11.7654 16.665 11.5547 16.665 11.2948C16.665 11.0349 16.4606 10.8242 16.2085 10.8242C15.9563 10.8242 15.752 11.0349 15.752 11.2948C15.752 11.5547 15.9563 11.7654 16.2085 11.7654Z" fill="#4094F7"/>
<path d="M16.2094 12.707C15.4542 12.707 14.8398 13.3403 14.8398 14.1187V14.5893H17.579V14.1187C17.579 13.3403 16.9646 12.707 16.2094 12.707Z" fill="#4094F7"/>
<path d="M19.0147 17.4697L20.5879 19.2264C20.5629 19.323 20.5494 19.4244 20.5494 19.529C20.5494 20.1777 21.0614 20.7055 21.6907 20.7055C22.32 20.7055 22.832 20.1777 22.832 19.529C22.832 18.8803 22.32 18.3526 21.6907 18.3526C21.5017 18.3526 21.3234 18.4005 21.1663 18.4847L19.7233 16.8734C20.655 15.9332 21.2342 14.6232 21.2342 13.1763C21.2342 10.3221 18.9814 8 16.2124 8C13.4434 8 11.1906 10.3221 11.1906 13.1763C11.1906 14.6233 11.7698 15.9332 12.7015 16.8734L11.2586 18.4847C11.1014 18.4005 10.9231 18.3526 10.7341 18.3526C10.1048 18.3526 9.59277 18.8803 9.59277 19.529C9.59277 20.1777 10.1048 20.7055 10.7341 20.7055C11.3634 20.7055 11.8754 20.1777 11.8754 19.529C11.8754 19.4244 11.8619 19.323 11.8369 19.2264L13.4101 17.4697C14.211 18.0269 15.1755 18.3526 16.2124 18.3526C17.2493 18.3526 18.2138 18.0269 19.0147 17.4697ZM13.9298 14.1174C13.9298 13.2469 14.3911 12.4859 15.0747 12.079C14.9284 11.8544 14.8428 11.5843 14.8428 11.294C14.8428 10.5156 15.4572 9.88229 16.2124 9.88229C16.9676 9.88229 17.582 10.5156 17.582 11.294C17.582 11.5843 17.4964 11.8544 17.3501 12.079C18.0337 12.4859 18.495 13.2469 18.495 14.1174V15.5292H13.9298V14.1174Z" fill="#4094F7"/>
</svg>
