<svg width="32" height="32" viewBox="0 0 32 32" fill="none" xmlns="http://www.w3.org/2000/svg">
<path d="M30.9178 16C30.9178 24.5748 24.1779 31.5 15.8954 31.5C7.61297 31.5 0.873047 24.5748 0.873047 16C0.873047 7.42519 7.61297 0.5 15.8954 0.5C24.1779 0.5 30.9178 7.42519 30.9178 16Z" fill="#FEFEFE" stroke="#4094F7"/>
<path d="M11.5873 11.8643C10.9774 11.2357 8.38566 11.0786 7.54713 11C7.47092 11 7.39467 11 7.31845 11.0786C7.24223 11.1572 7.16602 11.3143 7.16602 11.3929V18.4645C7.16602 18.7003 7.31848 18.8574 7.54717 18.8574H9.83402C9.98649 18.8574 10.1389 18.7789 10.2152 18.6217C10.2152 18.386 11.5873 14.2215 11.7398 12.1786C11.7397 12.1 11.7397 11.9429 11.5873 11.8643Z" fill="#4094F7"/>
<path d="M19.7428 13.7504C18.9805 13.5147 18.2944 13.2004 17.6846 12.9647C16.3125 12.3361 15.7026 12.6504 14.483 13.9076C13.9494 14.4576 13.5683 15.2433 13.6445 15.5576C13.6445 15.6362 13.6445 15.6362 13.7969 15.7148C14.1781 15.8719 14.7117 15.9505 15.2453 15.0862C15.3215 15.0076 15.3977 14.929 15.5502 14.929C15.7789 14.929 15.8551 14.8505 16.0838 14.7719C16.2362 14.6933 16.3887 14.6147 16.6173 14.5361C16.6936 14.5361 16.6936 14.5361 16.7698 14.5361C16.846 14.5361 16.9985 14.6147 17.0747 14.6147C17.4559 15.0076 18.142 15.5576 18.828 16.1862C19.8952 17.0506 20.9624 17.9934 21.496 18.7006H21.5722C21.0387 17.1291 20.1239 14.4576 19.7428 13.7504Z" fill="#4094F7"/>
<path d="M25.073 11.7852C22.1001 11.7852 20.4231 12.5709 20.3469 12.5709C20.2706 12.6494 20.1944 12.728 20.1182 12.8066C20.1182 12.8852 20.1182 13.0423 20.1944 13.1209C20.6518 13.9066 22.1763 18.2282 22.405 19.3282C22.4812 19.4854 22.6337 19.6425 22.7862 19.6425H25.073C25.3017 19.6425 25.4542 19.4853 25.4542 19.2496V12.178C25.4542 11.9423 25.3017 11.7852 25.073 11.7852Z" fill="#4094F7"/>
<path d="M20.9614 19.4862C20.6565 18.779 19.3606 17.7576 18.2171 16.8147C17.6073 16.2646 16.9975 15.7932 16.5401 15.4003C16.4639 15.4789 16.3114 15.4789 16.3114 15.5575C16.0828 15.636 16.0065 15.7146 15.7016 15.7146C15.0918 16.5004 14.3295 16.8146 13.491 16.5004C13.1098 16.4218 12.8812 16.1075 12.8049 15.7932C12.6525 15.0075 13.3385 13.9074 13.8722 13.3574H12.3476C12.0427 14.9289 11.509 16.9718 11.1279 18.0719C11.4328 18.3861 11.7378 18.779 11.9665 18.9362C13.4148 20.1934 15.0918 21.4506 15.3967 21.6863C15.6254 21.8434 16.0828 22.0006 16.3115 22.0006C16.3877 22.0006 16.4639 22.0006 16.5402 22.0006L15.3205 20.7434C15.168 20.5862 15.168 20.3505 15.3205 20.1934C15.473 20.0362 15.7016 20.0362 15.8541 20.1934L17.3787 21.7648C17.5311 21.922 17.6836 21.8434 17.836 21.8434C18.0647 21.7648 18.1409 21.6077 18.2172 21.372L16.4639 19.5647C16.3114 19.4076 16.3114 19.1719 16.4639 19.0147C16.6164 18.8576 16.8451 18.8576 16.9975 19.0147L18.9032 20.9791C18.9794 21.0576 19.2844 21.0576 19.513 20.9791C19.5893 20.9005 19.7417 20.8219 19.8179 20.6648L17.6836 18.4647C17.5311 18.3075 17.5311 18.0718 17.6836 17.9147C17.836 17.7576 18.0647 17.7575 18.2171 17.9147L20.4278 20.1934C20.5802 20.2719 20.7327 20.1934 20.8851 20.1148C20.9614 20.0362 21.1138 19.8005 20.9614 19.4862Z" fill="#4094F7"/>
</svg>
