<svg width="20" height="20" viewBox="0 0 20 20" fill="none" xmlns="http://www.w3.org/2000/svg">
<rect width="20" height="20" rx="2" fill="#CDCDCD"/>
<path d="M13.7953 8.1108H12.4657C12.4146 7.8267 12.3194 7.5767 12.1802 7.3608C12.041 7.14489 11.8706 6.96165 11.6689 6.81108C11.4672 6.66051 11.2413 6.54687 10.9913 6.47017C10.7441 6.39347 10.4814 6.35511 10.2029 6.35511C9.70011 6.35511 9.24982 6.48153 8.8521 6.73438C8.45721 6.98722 8.14471 7.35795 7.9146 7.84659C7.68732 8.33523 7.57369 8.93182 7.57369 9.63636C7.57369 10.3466 7.68732 10.946 7.9146 11.4347C8.14471 11.9233 8.45863 12.2926 8.85636 12.5426C9.25408 12.7926 9.70153 12.9176 10.1987 12.9176C10.4743 12.9176 10.7356 12.8807 10.9828 12.8068C11.2328 12.7301 11.4586 12.6179 11.6603 12.4702C11.862 12.3224 12.0325 12.142 12.1717 11.929C12.3137 11.7131 12.4118 11.4659 12.4657 11.1875L13.7953 11.1918C13.7243 11.6207 13.5865 12.0156 13.3819 12.3764C13.1802 12.7344 12.9203 13.044 12.6021 13.3054C12.2868 13.5639 11.926 13.7642 11.5197 13.9062C11.1135 14.0483 10.6703 14.1193 10.1902 14.1193C9.43448 14.1193 8.76119 13.9403 8.17028 13.5824C7.57937 13.2216 7.11346 12.706 6.77255 12.0355C6.43448 11.3651 6.26545 10.5653 6.26545 9.63636C6.26545 8.70455 6.4359 7.90483 6.77681 7.23722C7.11772 6.56676 7.58363 6.05256 8.17454 5.6946C8.76545 5.33381 9.43732 5.15341 10.1902 5.15341C10.6532 5.15341 11.085 5.22017 11.4856 5.35369C11.889 5.48437 12.2512 5.67756 12.5723 5.93324C12.8933 6.18608 13.1589 6.49574 13.3691 6.86222C13.5794 7.22585 13.7214 7.64205 13.7953 8.1108Z" fill="#757575"/>
</svg>
