<svg width="14" height="12" viewBox="0 0 14 12" fill="none" xmlns="http://www.w3.org/2000/svg">
<path d="M2.61492 9.8984L2.03737 11.1016C1.92502 11.3262 1.97325 11.5989 2.13361 11.7914C2.26197 11.9198 2.42233 12 2.5988 12C2.66292 12 2.74316 11.984 2.80739 11.9679L5.5829 10.9734C5.98397 11.0375 6.40106 11.0696 6.81823 11.0696C10.5723 11.0696 13.6365 8.58293 13.6365 5.5348C13.6364 2.48665 10.5723 0 6.81823 0C3.06419 0 0 2.48668 0 5.5348C0 7.23532 0.978617 8.85568 2.61502 9.89847L2.61492 9.8984ZM6.81816 0.962503C10.0428 0.962503 12.6738 3.016 12.6738 5.53473C12.6739 8.05341 10.0429 10.107 6.81816 10.107C6.41709 10.107 6.03203 10.0748 5.64706 10.0107C5.55082 9.99472 5.43846 10.0107 5.34221 10.0428L3.25661 10.7809L3.60955 10.0269C3.75391 9.73814 3.64167 9.36906 3.35284 9.20869C1.84478 8.34243 0.962417 6.96274 0.962417 5.51882C0.962529 3.01604 3.59357 0.962638 6.81808 0.962638L6.81816 0.962503Z" fill="#6E7C87"/>
<path d="M3.6903 4.39623H9.94703C10.2197 4.39623 10.4283 4.18763 10.4283 3.91491C10.4283 3.64219 10.2198 3.43359 9.94703 3.43359H3.6903C3.41758 3.43359 3.20898 3.64219 3.20898 3.91491C3.20898 4.18763 3.41758 4.39623 3.6903 4.39623Z" fill="#6E7C87"/>
<path d="M3.6903 6.1599H8.34274C8.61546 6.1599 8.82406 5.95131 8.82406 5.67858C8.82406 5.40586 8.61547 5.19727 8.34274 5.19727H3.6903C3.41758 5.19727 3.20898 5.40586 3.20898 5.67858C3.20898 5.95131 3.41758 6.1599 3.6903 6.1599V6.1599Z" fill="#6E7C87"/>
<path d="M3.6903 7.92552H6.73845C7.01117 7.92552 7.21977 7.71693 7.21977 7.44421C7.21977 7.17149 7.01118 6.96289 6.73845 6.96289H3.6903C3.41758 6.96289 3.20898 7.17148 3.20898 7.44421C3.20898 7.71703 3.41758 7.92552 3.6903 7.92552V7.92552Z" fill="#6E7C87"/>
</svg>
