<svg width="18" height="18" viewBox="0 0 18 18" fill="none" xmlns="http://www.w3.org/2000/svg">
<path d="M10.9074 2.32202C10.8615 2.27612 10.7994 2.25091 10.7323 2.25H10.7301C10.6977 2.25 10.6666 2.25673 10.6388 2.26758L10.6334 2.26939C10.6009 2.28285 10.5735 2.30093 10.5519 2.32252L10.5515 2.32292C10.5123 2.3621 10.4741 2.41423 10.4345 2.48444C10.3958 2.55325 10.357 2.63792 10.3198 2.73827C10.304 2.78015 10.2838 2.84715 10.2617 2.91556C10.2414 2.97854 10.2243 3.02675 10.2086 3.07979C10.2077 3.0834 10.2059 3.08702 10.205 3.09013V3.09144C10.169 3.21479 10.1302 3.35421 10.0897 3.50276V3.50407C10.0861 3.51662 10.0834 3.52617 10.0798 3.53872V3.54003C10.0272 3.73259 9.96951 3.94593 9.90382 4.1655C9.86826 4.28523 9.82638 4.39452 9.79263 4.49668C9.7638 4.58306 9.73366 4.67979 9.69861 4.77794V4.78608L9.68063 4.83238V4.83369C9.64648 4.92369 9.60821 5.01098 9.56994 5.09878L9.57034 5.10511L9.54563 5.15774L9.54523 5.15955C9.49752 5.26532 9.44669 5.36697 9.39265 5.46421L9.39135 5.46642L9.39094 5.46823C9.28065 5.66621 9.15469 5.8471 9.00443 5.99738C8.77401 6.2278 8.45901 6.32233 8.12292 6.37808C7.78673 6.43393 7.41547 6.44688 7.04251 6.46175C6.94257 6.46577 6.83147 6.4743 6.71666 6.47973L6.70762 6.48013H6.69818C6.65679 6.47923 6.65318 6.47923 6.682 6.47792C6.64554 6.47973 6.5911 6.48606 6.52581 6.49008L6.52541 6.49048C6.39442 6.49861 6.26887 6.50665 6.14512 6.51971C6.09429 6.52513 6.04929 6.52965 6.00701 6.53497C5.97366 6.53949 5.93458 6.54582 5.88999 6.55255C5.81435 6.5642 5.73921 6.57776 5.66499 6.59303C5.63164 6.59976 5.59839 6.6074 5.56414 6.61513C5.49392 6.6318 5.42281 6.65159 5.35129 6.67359C5.309 6.68665 5.27033 6.6979 5.23658 6.71005L5.23618 6.71045C5.18395 6.72893 5.1277 6.75324 5.06522 6.78067C5.01349 6.80317 4.97161 6.81984 4.94187 6.83511L4.94227 6.83551C4.89095 6.86163 4.83379 6.89718 4.77041 6.93716C4.7236 6.96689 4.69166 6.98397 4.6768 6.99432C4.59262 7.05418 4.51387 7.12028 4.43874 7.19501C4.39062 7.24312 4.38882 7.24362 4.43422 7.19862L4.43382 7.19903C4.42166 7.21118 4.41132 7.22374 4.40227 7.2377L4.40047 7.23951C4.39233 7.25206 4.3847 7.26602 4.37887 7.28089L4.37756 7.2831C4.36541 7.31374 4.35868 7.34568 4.35868 7.37672C4.35868 7.4406 4.38299 7.50408 4.43341 7.55451L6.95974 10.0808L2.32242 14.7693C2.29992 14.7918 2.28285 14.8183 2.26979 14.8499C2.25633 14.8827 2.25 14.9152 2.25 14.9457C2.25 14.9457 2.25402 14.97 2.26798 15.0177C2.27612 15.0442 2.27742 15.0502 2.28013 15.0605C2.28234 15.0645 2.28013 15.0605 2.28285 15.0659C2.29902 15.0957 2.30223 15.1006 2.29189 15.0839C2.28023 15.0659 2.28335 15.0705 2.30715 15.1001L2.30756 15.1005C2.33096 15.1297 2.33407 15.1342 2.32282 15.1226L2.32463 15.1244C2.31117 15.1113 2.31559 15.1154 2.34532 15.1388L2.34573 15.1392C2.37044 15.159 2.37857 15.1648 2.36511 15.1562L2.36551 15.1566L2.36592 15.157C2.3389 15.1395 2.33578 15.1373 2.37536 15.1607C2.38028 15.1638 2.37897 15.1625 2.38299 15.1647C2.39384 15.1678 2.40097 15.1696 2.43111 15.1786C2.48063 15.1935 2.50584 15.198 2.50313 15.198C2.53236 15.198 2.5643 15.1917 2.59855 15.1773C2.63099 15.1639 2.65701 15.1467 2.67911 15.1247L2.67951 15.1243L7.36774 10.4875L9.89448 13.0142C9.9453 13.0651 10.007 13.0885 10.0718 13.0885C10.1042 13.0885 10.1371 13.0817 10.1667 13.0696H10.168C10.1801 13.0647 10.1945 13.0565 10.2094 13.0467C10.2098 13.0463 10.2107 13.0467 10.2112 13.0463L10.2116 13.0459C10.2259 13.0364 10.2381 13.0261 10.2508 13.0134C10.2058 13.0584 10.2067 13.0571 10.2544 13.0089C10.3291 12.9338 10.3952 12.855 10.4551 12.7709C10.4632 12.7596 10.4789 12.7304 10.5077 12.6854C10.55 12.6197 10.5874 12.5576 10.6171 12.4986C10.6279 12.4775 10.6409 12.446 10.6594 12.405C10.6909 12.3348 10.7192 12.2678 10.7417 12.2034C10.7521 12.1746 10.7624 12.1405 10.7746 12.1018C10.7971 12.0285 10.8174 11.9555 10.8344 11.8831C10.8426 11.849 10.8497 11.8156 10.8565 11.7823C10.8727 11.7039 10.8863 11.6261 10.8979 11.5478C10.9038 11.5086 10.9096 11.4767 10.9132 11.4506C10.9195 11.4034 10.9245 11.3534 10.9303 11.2967V11.2954C10.9437 11.1689 10.9519 11.0421 10.96 10.9098C10.9636 10.8486 10.97 10.7982 10.9717 10.7648C10.9699 10.7986 10.9699 10.795 10.9694 10.7496V10.7414L10.9699 10.7338C10.9753 10.6182 10.9838 10.5057 10.9878 10.4044C11.0027 10.0314 11.0162 9.66062 11.072 9.32484C11.1279 8.98914 11.2214 8.67414 11.4518 8.44333L11.4522 8.44293C11.5175 8.37764 11.5903 8.31958 11.6656 8.26333L11.6817 8.24716L11.6993 8.23551L11.7006 8.2342C11.7766 8.17926 11.8581 8.13024 11.9409 8.08253L11.949 8.07439L11.9819 8.05681L11.9823 8.05641C12.0813 8.00147 12.1848 7.95064 12.29 7.90293L12.2904 7.90253C12.3777 7.86295 12.4677 7.82689 12.5582 7.79133L12.5618 7.78772L12.6163 7.76703L12.6167 7.76662C12.7368 7.72072 12.8493 7.68827 12.9506 7.65503C13.0531 7.62088 13.1639 7.57989 13.284 7.54384C13.4784 7.48578 13.6634 7.43535 13.838 7.38764L13.8393 7.38634L13.9095 7.36745L13.9099 7.36705C14.2389 7.27745 14.5062 7.20372 14.7091 7.12859C14.7262 7.12226 14.7267 7.12186 14.7109 7.12819C14.7082 7.12909 14.7225 7.11965 14.7748 7.09846C14.8539 7.06601 14.9246 7.03638 14.9656 7.01298C15.0344 6.97431 15.0858 6.93604 15.1253 6.89646L15.1266 6.89516C15.1495 6.87225 15.168 6.84473 15.1811 6.81369C15.1936 6.78356 15.2009 6.75071 15.2009 6.71787C15.2009 6.65077 15.1738 6.58648 15.127 6.54008L10.9071 2.3201L10.9074 2.32202ZM10.78 2.90923L14.5415 6.67072L14.0888 6.79808C13.9821 6.82781 13.8747 6.85795 13.7783 6.88407C13.2244 7.03484 12.5579 7.21845 11.9838 7.49337C11.639 7.6585 11.3304 7.85558 11.0963 8.08963C10.573 8.61297 10.5204 9.47157 10.4839 10.3877C10.4758 10.593 10.461 10.7923 10.447 10.9871L10.4466 10.9875C10.4367 11.1203 10.4277 11.2593 10.4098 11.3929C10.4003 11.4622 10.3909 11.5356 10.3764 11.6121L10.376 11.6117C10.3688 11.6495 10.3621 11.6904 10.3526 11.7332L10.3522 11.7336C10.3243 11.8574 10.2905 11.9824 10.2433 12.1045L10.0912 12.4986L4.95122 7.35861L5.34537 7.20654C5.47092 7.15792 5.5996 7.12377 5.72787 7.09534L5.72827 7.09494C5.76383 7.08731 5.79396 7.08239 5.81646 7.07787C5.89792 7.0621 5.98029 7.04994 6.06085 7.03919C6.19002 7.02212 6.32321 7.01358 6.44826 7.00414C6.64804 6.98927 6.85236 6.974 7.06249 6.96547C7.95617 6.92991 8.79631 6.87416 9.32013 6.38538L9.32917 6.37774L9.33731 6.37051C9.36162 6.35112 9.36744 6.3462 9.36071 6.35293C9.43816 6.27549 9.51188 6.18961 9.5826 6.09599L9.5822 6.09559C9.65241 6.00247 9.71941 5.90213 9.78158 5.79676C9.90624 5.58573 10.0147 5.3526 10.1114 5.11143C10.2082 4.87025 10.2914 4.62044 10.3657 4.37615C10.4404 4.13177 10.5061 3.89241 10.5664 3.67143C10.5929 3.5751 10.6226 3.46712 10.6524 3.36095L10.78 2.90923Z" fill="#6E7C87"/>
</svg>
