<svg width="21" height="20" viewBox="0 0 21 20" fill="none" xmlns="http://www.w3.org/2000/svg">
<rect x="0.133789" width="20" height="20" rx="2" fill="#4094F7"/>
<path d="M7.25471 14V5.27273H10.3655C11.0445 5.27273 11.607 5.39631 12.053 5.64347C12.499 5.89062 12.8328 6.22869 13.0544 6.65767C13.276 7.08381 13.3868 7.56392 13.3868 8.09801C13.3868 8.63494 13.2746 9.1179 13.0502 9.54688C12.8286 9.97301 12.4933 10.3111 12.0445 10.5611C11.5985 10.8082 11.0374 10.9318 10.3612 10.9318H8.22203V9.81534H10.2419C10.6709 9.81534 11.0189 9.74148 11.286 9.59375C11.553 9.44318 11.749 9.23864 11.874 8.98011C11.999 8.72159 12.0615 8.42756 12.0615 8.09801C12.0615 7.76847 11.999 7.47585 11.874 7.22017C11.749 6.96449 11.5516 6.7642 11.2817 6.61932C11.0146 6.47443 10.6624 6.40199 10.2249 6.40199H8.57147V14H7.25471Z" fill="#FAFAFA"/>
</svg>
