<svg width="17" height="16" viewBox="0 0 17 16" fill="none" xmlns="http://www.w3.org/2000/svg">
<g clip-path="url(#clip0_1772_38330)">
<path d="M6.77354 5.9987C6.93028 5.55314 7.23964 5.17744 7.64685 4.93812C8.05405 4.6988 8.53281 4.61132 8.99833 4.69117C9.46385 4.77102 9.88609 5.01305 10.1903 5.37438C10.4944 5.73572 10.6609 6.19305 10.6602 6.66536C10.6602 7.9987 8.66021 8.66536 8.66021 8.66536M8.71354 11.332H8.72021M15.3802 7.9987C15.3802 11.6806 12.3954 14.6654 8.71354 14.6654C5.03164 14.6654 2.04688 11.6806 2.04688 7.9987C2.04688 4.3168 5.03164 1.33203 8.71354 1.33203C12.3954 1.33203 15.3802 4.3168 15.3802 7.9987Z" stroke="#98A2B3" stroke-width="1.33333" stroke-linecap="round" stroke-linejoin="round"/>
</g>
<defs>
<clipPath id="clip0_1772_38330">
<rect width="16" height="16" fill="white" transform="translate(0.713867)"/>
</clipPath>
</defs>
</svg>
