<svg width="23" height="24" viewBox="0 0 23 24" fill="none" xmlns="http://www.w3.org/2000/svg">
<path fill-rule="evenodd" clip-rule="evenodd" d="M20 11.1973C19.1175 11.7078 18.0929 12 17 12C13.6863 12 11 9.31371 11 6C11 5.29873 11.1203 4.62556 11.3414 4H2C0.895431 4 0 4.89543 0 6V22C0 23.1046 0.895431 24 2 24H18C19.1046 24 20 23.1046 20 22V11.1973Z" fill="#4094F7"/>
<circle cx="17" cy="6" r="5.5" fill="#4094F7" stroke="white"/>
<path d="M6.09162 19V10.2727H9.20241C9.87855 10.2727 10.4396 10.3892 10.8857 10.6222C11.3345 10.8551 11.6697 11.1776 11.8913 11.5895C12.1129 11.9986 12.2237 12.4716 12.2237 13.0085C12.2237 13.5426 12.1115 14.0128 11.8871 14.419C11.6655 14.8224 11.3303 15.1364 10.8814 15.3608C10.4354 15.5852 9.87429 15.6974 9.19815 15.6974H6.84162V14.5639H9.07884C9.50497 14.5639 9.85156 14.5028 10.1186 14.3807C10.3885 14.2585 10.5859 14.081 10.7109 13.848C10.8359 13.6151 10.8984 13.3352 10.8984 13.0085C10.8984 12.679 10.8345 12.3935 10.7067 12.152C10.5817 11.9105 10.3842 11.7259 10.1143 11.598C9.8473 11.4673 9.49645 11.402 9.06179 11.402H7.40838V19H6.09162ZM10.3999 15.0625L12.5561 19H11.0561L8.94247 15.0625H10.3999Z" fill="#FAFAFA"/>
<path d="M16.5222 9.40341V3.77841H17.4767V9.40341H16.5222ZM14.187 7.06818V6.11364H19.812V7.06818H14.187Z" fill="#FAFAFA"/>
</svg>
